<?xml version="1.0" encoding="UTF-8" standalone="no"?>
<!-- Created with Inkscape (http://www.inkscape.org/) -->

<svg
   xmlns:dc="http://purl.org/dc/elements/1.1/"
   xmlns:cc="http://creativecommons.org/ns#"
   xmlns:rdf="http://www.w3.org/1999/02/22-rdf-syntax-ns#"
   xmlns:svg="http://www.w3.org/2000/svg"
   xmlns="http://www.w3.org/2000/svg"
   xmlns:sodipodi="http://sodipodi.sourceforge.net/DTD/sodipodi-0.dtd"
   xmlns:inkscape="http://www.inkscape.org/namespaces/inkscape"
   width="357.81696mm"
   height="413.17145mm"
   viewBox="0 0 1267.8554 1463.9933"
   id="svg4267"
   version="1.1"
   inkscape:version="0.91 r13725"
   sodipodi:docname="logo.svg">
  <defs
     id="defs4269" />
  <sodipodi:namedview
     id="base"
     pagecolor="#ffffff"
     bordercolor="#666666"
     borderopacity="1.0"
     inkscape:pageopacity="0.0"
     inkscape:pageshadow="2"
     inkscape:zoom="0.24748737"
     inkscape:cx="-1947.1056"
     inkscape:cy="-11.385492"
     inkscape:document-units="px"
     inkscape:current-layer="layer1"
     showgrid="false"
     fit-margin-top="0"
     fit-margin-left="0"
     fit-margin-right="0"
     fit-margin-bottom="0"
     inkscape:window-width="3070"
     inkscape:window-height="1752"
     inkscape:window-x="130"
     inkscape:window-y="48"
     inkscape:window-maximized="1" />
  <metadata
     id="metadata4272">
    <rdf:RDF>
      <cc:Work
         rdf:about="">
        <dc:format>image/svg+xml</dc:format>
        <dc:type
           rdf:resource="http://purl.org/dc/dcmitype/StillImage" />
        <dc:title></dc:title>
      </cc:Work>
    </rdf:RDF>
  </metadata>
  <g
     inkscape:label="Layer 1"
     inkscape:groupmode="layer"
     id="layer1"
     transform="translate(928.21346,911.06305)">
    <g
       id="g4159">
      <path
         d="m -294.28575,552.93024 -633.9277,-365.99831 -1e-5,-731.99664 633.92767,-365.99834 633.9277,365.99831 2e-5,731.99664 z"
         inkscape:randomized="0"
         inkscape:rounded="0"
         inkscape:flatsided="true"
         sodipodi:arg2="2.0943951"
         sodipodi:arg1="1.5707963"
         sodipodi:r2="633.92761"
         sodipodi:r1="731.99664"
         sodipodi:cy="-179.06641"
         sodipodi:cx="-294.28577"
         sodipodi:sides="6"
         id="path4172-7-2"
         style="fill:#2f9260;fill-opacity:1;stroke:none;stroke-width:6;stroke-linecap:round;stroke-linejoin:round;stroke-miterlimit:4;stroke-dasharray:none;stroke-opacity:1"
         sodipodi:type="star" />
      <g
         style="fill:#ffffff;fill-opacity:1;stroke:none"
         transform="matrix(1.7513737,0,0,1.7513737,-847.8929,-649.6011)"
         id="g4235-5-0">
        <path
           style="fill:#ffffff;fill-opacity:1;stroke:none"
           inkscape:connector-curvature="0"
           d="M 379.24203,320.25586"
           id="path12597-3-6" />
        <path
           style="opacity:0.477778;fill:#ffffff;fill-opacity:1;stroke:none"
           inkscape:connector-curvature="0"
           d="M 379.24203,320.25586"
           id="path12599-5-8" />
        <path
           style="fill:#ffffff;fill-opacity:1;stroke:none;stroke-width:10;stroke-miterlimit:2;stroke-dashoffset:0"
           inkscape:connector-curvature="0"
           stroke-miterlimit="2"
           id="path12329-6-9"
           d="m 316.09875,57.712597 c -48.10101,0 -87.0568,31.904903 -99.9533,74.602863 -14.68398,-7.48769 -30.5978,-12.86259 -48.3218,-12.86259 -58.46263,0 -105.910785,46.09924 -105.910579,102.90051 0,11.91444 3.442375,22.7966 7.28141,33.44261 -29.093174,15.86194 -49.645685,45.0499 -49.645685,79.74792 0,51.12095 48.514428,68.57355 95.319684,92.61045 133.43969,68.52812 267.59129,68.71221 402.46056,0 46.88233,-23.88527 95.3197,-41.4895 95.3197,-92.61045 0,-34.69802 -20.55273,-63.88598 -49.64569,-79.74792 3.83899,-10.64587 7.28137,-21.5284 7.28137,-33.44261 0,-56.80109 -47.44799,-102.90032 -105.91076,-102.90051 -17.72376,0 -33.63761,5.3749 -48.3216,12.86259 C 403.1554,89.6175 364.19974,57.712597 316.09876,57.712597 Z"
           sodipodi:nodetypes="scsscsssscsscss" />
        <title
           id="title4240-2-2">Layer 1</title>
      </g>
      <path
         sodipodi:nodetypes="ccccc"
         inkscape:connector-curvature="0"
         id="path4172-3-9-6"
         d="m -294.286,552.9301 -633.9274,-365.9982 0,-731.9965 633.9274,365.9982 z"
         style="fill:#2f9260;fill-opacity:1;stroke:none;stroke-width:6;stroke-linecap:round;stroke-linejoin:round;stroke-miterlimit:4;stroke-dasharray:none;stroke-opacity:1" />
    </g>
  </g>
</svg>
